<?xml version="1.0" standalone="no"?>
<!DOCTYPE svg PUBLIC "-//W3C//DTD SVG 20010904//EN"
 "http://www.w3.org/TR/2001/REC-SVG-20010904/DTD/svg10.dtd">
<svg version="1.0" xmlns="http://www.w3.org/2000/svg"
 width="512.000000pt" height="512.000000pt" viewBox="0 0 512.000000 512.000000"
 preserveAspectRatio="xMidYMid meet">
<metadata>
Created by potrace 1.11, written by Peter Selinger 2001-2013
</metadata>
<g transform="translate(0.000000,512.000000) scale(0.100000,-0.100000)"
fill="#000000" stroke="none">
<path d="M2175 5080 c-1111 -169 -1982 -1044 -2146 -2155 -27 -183 -27 -557 0
-740 166 -1127 1049 -2000 2186 -2161 179 -26 501 -26 680 0 1148 163 2028
1043 2191 2191 26 179 26 501 0 680 -161 1137 -1034 2020 -2161 2186 -179 26
-575 26 -750 -1z m-120 -1818 c290 -419 531 -761 535 -760 5 2 236 347 515
768 279 421 508 766 509 767 1 1 53 -174 116 -390 229 -790 677 -2303 695
-2349 7 -17 -25 -18 -587 -18 l-595 0 -190 696 -189 695 -405 -610 -404 -611
-409 571 c-225 313 -410 568 -412 567 -7 -8 -131 -482 -204 -783 -117 -486
-126 -516 -156 -542 -48 -43 -154 -22 -154 30 1 39 793 2749 801 2739 3 -4
243 -350 534 -770z"/>
</g>
</svg>
